<?xml version="1.0" encoding="UTF-8" standalone="no"?>
<!DOCTYPE svg PUBLIC "-//W3C//DTD SVG 1.1//EN" "http://www.w3.org/Graphics/SVG/1.1/DTD/svg11.dtd">
<!-- Created with Vectornator (http://vectornator.io/) -->
<svg height="100%" stroke-miterlimit="10" style="fill-rule:nonzero;clip-rule:evenodd;stroke-linecap:round;stroke-linejoin:round;" version="1.1" viewBox="0 0 200 200" width="100%" xml:space="preserve" xmlns="http://www.w3.org/2000/svg" xmlns:vectornator="http://vectornator.io" xmlns:xlink="http://www.w3.org/1999/xlink">
<defs/>
<clipPath id="ArtboardFrame">
<rect height="200" width="200" x="0" y="0"/>
</clipPath>
<g clip-path="url(#ArtboardFrame)" id="Untitled" vectornator:layerName="Untitled">
<g opacity="1" vectornator:layerName="g">
<path d="M84.9 1.5C63.1 5.2 46.7 13.4 30.8 28.8C13.4 45.6 4 64.9 0.8 90.1C-0.1 98-0.1 102 0.8 109.9C4 135.4 13.5 154.7 31.3 171.7C44.9 184.7 57.8 191.9 75.9 196.7C84.1 198.9 87.6 199.3 100 199.3C112.4 199.3 115.9 198.9 124.1 196.7C145.5 191.1 162.2 180.5 176.2 164C203.5 131.7 207.3 85.3 185.6 49C180.9 41.3 172.4 30.9 166.9 26.2L163.7 23.6L161.3 26.5C160 28.2 157.6 31.1 156 33.1L153 36.8L155.5 38.4C159.6 41.1 169.8 54.7 174.1 63.1C180.6 76.1 182.4 84.3 182.4 100C182.4 111 182 115 180.2 121.3C172 150.1 150.2 171.9 121.4 180.2C110.5 183.3 90.2 183.3 78.7 180.2C56.1 174 36.1 157.6 25.7 136.5C8.4 101.6 18.4 58.2 49.2 34.7C62.4 24.6 77.1 18.8 93.2 17.3L100 16.7L100 8.4L100-2.98023e-06L96.3 0.099997C94.2 0.199997 89.1 0.799997 84.9 1.5Z" fill="#fe0000" fill-rule="nonzero" opacity="1" stroke="none" vectornator:layerName="path"/>
<path d="M81.1 26C56 32.6 35.5 51.9 27.4 76.7C24.7 84.8 24.5 86.7 24.5 100C24.5 113.3 24.7 115.2 27.4 123.3C35.5 148.2 56.2 167.5 81.5 174C85.8 175.1 91.7 176 94.7 176L100 176L100 167L100 158L95.7 158C93.4 158 88.7 157.3 85.5 156.5C65.1 151.3 48.7 134.7 43.4 113.9C41.1 104.9 41.9 88.7 45 80.5C52.2 61.7 67.2 48.1 86 43.4C95.5 41 111.3 41.9 120.2 45.3C136.3 51.5 148.3 63.5 154.8 79.7C157.2 85.9 157.4 87.7 157.4 100C157.4 112.4 157.2 114.1 154.7 120.4C153.2 124.2 150.2 129.8 148.1 133L144.2 138.7L150.8 144.4L157.5 150.1L160 147.1C164.6 141.7 169.2 133.1 172.4 124.3C175.4 115.9 175.5 114.8 175.5 100C175.5 85.5 175.3 84 172.6 76.5C168.7 65.7 167 62.5 160.5 53.9C150.5 40.6 134.9 30.2 118.5 26C108 23.3 91.4 23.3 81.1 26Z" fill="#004cc0" fill-rule="nonzero" opacity="1" stroke="none" vectornator:layerName="path"/>
<path d="M100.8 57.2C100.6 62.3 100.5 66.6 100.6 66.7C100.6 66.9 103 67.4 105.8 68C112.7 69.3 118.2 72.2 123.1 77.1C135.7 89.7 135.7 110.3 123 123C110.3 135.7 89.7 135.7 77 123C64.6 110.6 64.2 90.4 76.1 77.8L79.6 74.1L74.3 67.1C71.3 63.2 68.5 60 68 60C66.4 60 60 67 56.5 72.5C51 81.1 48.7 89.1 48.7 100C48.7 114.9 53.4 126.3 64 136.8C70.7 143.6 79.9 148.4 89.7 150.5C98.3 152.3 101.8 152.3 110.5 150.5C129.1 146.6 144.2 132.6 149.6 114.4C152.2 105.9 151.9 92.3 149.1 84.1C142.4 64.6 126.4 51.6 105.3 48.6L101.1 48L100.8 57.2Z" fill="#fe0000" fill-rule="nonzero" opacity="1" stroke="none" vectornator:layerName="path"/>
<path d="M88.2 76.6C78.9 81.2 74 89.3 74 100C74 115.2 84.8 126 100 126C115.2 126 125.9 115.2 126 99.9C126 84.8 115.2 74.1 99.9 74C94.9 74 92.2 74.6 88.2 76.6Z" fill="#000000" fill-rule="nonzero" opacity="1" stroke="none" vectornator:layerName="path"/>
</g>
</g>
</svg>
